<?xml version="1.0" standalone="no"?>
<!DOCTYPE svg PUBLIC "-//W3C//DTD SVG 20010904//EN"
 "http://www.w3.org/TR/2001/REC-SVG-20010904/DTD/svg10.dtd">
<svg version="1.0" xmlns="http://www.w3.org/2000/svg"
 width="864.000000pt" height="864.000000pt" viewBox="0 0 864.000000 864.000000"
 preserveAspectRatio="xMidYMid meet">
<metadata>
Created by potrace 1.11, written by Peter Selinger 2001-2013
</metadata>
<g transform="translate(0.000000,864.000000) scale(0.100000,-0.100000)"
fill="#000000" stroke="none">
<path d="M42 8253 c24 -32 48 -63 53 -70 17 -21 28 -36 95 -127 36 -48 77
-103 93 -121 15 -18 27 -35 27 -39 0 -3 6 -14 14 -23 75 -92 106 -133 106
-141 0 -6 4 -12 8 -14 5 -1 42 -48 82 -103 41 -55 78 -104 83 -110 12 -16 90
-119 110 -146 57 -78 191 -257 205 -275 9 -11 28 -36 42 -55 13 -19 28 -38 32
-44 14 -17 62 -80 81 -106 109 -150 281 -375 288 -377 5 -2 9 -9 9 -16 0 -7 8
-21 18 -32 9 -10 71 -91 137 -179 66 -88 123 -161 127 -163 4 -2 8 -10 8 -17
0 -8 6 -18 13 -22 6 -4 28 -30 46 -58 19 -27 38 -52 41 -55 3 -3 125 -165 271
-360 146 -195 380 -507 520 -693 140 -186 259 -346 264 -355 6 -9 20 -27 33
-41 12 -15 25 -34 28 -43 3 -10 9 -18 14 -18 4 0 11 -7 14 -16 4 -11 -47 -86
-155 -230 -88 -118 -167 -221 -175 -229 -8 -8 -15 -18 -16 -22 -1 -4 -6 -12
-11 -18 -4 -5 -84 -111 -177 -235 -93 -124 -173 -229 -177 -235 -5 -5 -20 -26
-33 -45 -14 -19 -29 -40 -35 -46 -5 -7 -18 -22 -27 -35 -27 -38 -286 -383
-296 -395 -5 -6 -44 -57 -87 -115 -43 -57 -81 -106 -85 -109 -4 -3 -9 -10 -11
-15 -7 -18 -184 -250 -196 -258 -7 -4 -13 -12 -13 -17 0 -8 -82 -122 -100
-140 -3 -3 -86 -113 -185 -245 -99 -132 -183 -241 -187 -243 -4 -2 -8 -10 -8
-17 0 -7 -4 -15 -8 -17 -5 -1 -125 -158 -267 -348 -142 -190 -262 -346 -267
-348 -4 -2 -8 -8 -8 -14 0 -8 -31 -49 -106 -140 -7 -10 -11 -18 -8 -18 3 0 -1
-6 -8 -13 -7 -8 -24 -29 -38 -47 -23 -31 -46 -59 -70 -87 -5 -7 -10 -16 -10
-22 0 -5 -4 -11 -8 -13 -4 -1 -36 -40 -70 -85 l-63 -83 108 0 c148 -1 2012 -1
2143 0 l106 0 39 56 c39 54 51 70 88 113 9 12 17 23 17 26 0 5 7 13 57 73 13
15 23 30 23 34 0 4 6 13 13 20 18 19 341 451 346 463 2 6 7 12 11 15 4 3 48
61 99 130 51 69 105 141 120 160 16 19 29 38 30 43 0 4 9 16 19 26 26 29 32
38 118 154 104 142 132 179 149 200 8 9 15 21 15 25 0 4 9 14 20 22 11 8 20
19 20 25 0 5 13 24 28 41 15 18 34 42 42 54 8 12 23 31 32 43 9 12 94 126 188
252 94 127 180 241 190 255 10 14 41 56 69 93 28 37 55 73 61 80 6 7 20 25 31
40 l22 28 19 -53 c10 -29 20 -60 22 -68 12 -44 130 -341 155 -388 5 -9 37 -73
72 -142 34 -69 70 -137 80 -152 11 -14 19 -29 19 -33 0 -10 72 -129 83 -136 5
-3 7 -8 6 -10 -3 -4 30 -59 41 -69 3 -3 11 -17 19 -32 8 -15 21 -36 30 -45 9
-10 34 -45 56 -78 21 -33 41 -62 45 -65 3 -3 19 -23 35 -45 16 -22 34 -44 39
-50 6 -5 24 -28 41 -50 47 -64 192 -222 269 -294 28 -25 62 -59 78 -74 15 -15
28 -26 28 -24 0 3 15 -10 33 -27 45 -42 222 -176 233 -176 5 0 15 -9 22 -20 7
-11 16 -20 22 -20 5 0 29 -13 53 -30 25 -16 49 -30 55 -30 6 0 12 -4 14 -9 12
-31 567 -297 660 -315 7 -2 26 -8 41 -14 15 -7 40 -15 55 -18 15 -3 44 -12 64
-20 32 -12 161 -48 208 -59 8 -1 33 -8 55 -13 22 -6 54 -13 70 -16 17 -3 61
-12 99 -20 38 -9 87 -18 108 -20 21 -3 42 -7 46 -10 4 -2 34 -7 67 -10 33 -3
71 -8 85 -11 14 -3 48 -7 75 -10 28 -3 61 -7 75 -10 22 -4 96 -11 230 -20 25
-2 138 -6 253 -10 l207 -6 0 853 0 853 -148 0 c-81 0 -167 4 -192 7 -103 16
-127 20 -165 30 -22 5 -47 12 -55 13 -110 24 -336 126 -459 207 -95 63 -202
150 -227 184 -10 15 -28 38 -40 53 -89 113 -192 356 -228 541 -3 14 -8 36 -11
50 -4 14 -8 39 -10 55 -2 17 -9 57 -15 90 -6 33 -13 87 -15 120 -3 33 -8 76
-10 95 -3 19 -7 180 -10 356 l-5 321 1030 -2 1030 -2 0 2063 0 2064 -22 0
c-153 4 -3911 0 -3914 -3 -3 -2 -30 -62 -60 -133 -30 -71 -59 -138 -64 -149
-15 -32 -108 -279 -112 -295 -2 -8 -5 -17 -8 -20 -5 -4 -129 -371 -134 -395
-3 -14 -45 -153 -61 -200 -7 -22 -15 -53 -18 -70 -3 -16 -11 -46 -17 -65 -6
-19 -13 -42 -15 -50 -4 -19 -24 -100 -29 -120 -8 -30 -38 -156 -42 -175 -2
-11 -7 -36 -11 -55 -4 -19 -8 -37 -8 -40 -3 -11 -16 -76 -20 -95 -2 -11 -4
-20 -5 -20 -1 0 -3 -9 -5 -20 -1 -11 -6 -36 -10 -55 -3 -19 -8 -48 -11 -65 -2
-16 -8 -52 -14 -80 -5 -27 -11 -65 -12 -83 l-2 -34 -21 25 c-36 44 -49 61
-105 137 -30 41 -57 77 -60 80 -3 3 -17 21 -30 40 -13 19 -27 37 -30 40 -4 3
-11 12 -16 21 -5 9 -21 32 -36 50 -15 19 -102 135 -194 259 -169 228 -377 507
-392 525 -4 6 -19 26 -32 45 -27 38 -48 65 -67 85 -7 8 -13 16 -13 19 0 3 -24
36 -52 74 -29 38 -61 79 -71 93 -10 13 -49 67 -87 119 -38 52 -76 102 -83 110
-8 8 -32 40 -53 70 -21 30 -41 57 -44 60 -3 3 -17 21 -30 40 -12 19 -28 40
-34 45 -6 6 -27 33 -45 60 -19 28 -37 52 -41 55 -3 3 -18 24 -34 48 -16 23
-33 42 -37 42 -5 0 -9 4 -9 9 0 6 -17 33 -38 60 l-37 51 -1178 0 -1178 0 43
-57z"/>
</g>
</svg>
